<svg width="500" height="500" xmlns="http://www.w3.org/2000/svg"><rect style="fill:black;stroke-width:0" x="22.97" y="25.03" width="452.95" height="452.95" rx="30" ry="30"/><path d="M51.95 16.59A37.68 37.68 0 0 0 14.3 54.23v395.2c0 1.24.25 2.4.36 3.6l-.36-.16c.13.49.33.96.5 1.45 2.42 18.42 18.05 32.75 37.13 32.75h395.2a37.67 37.67 0 0 0 37.64-37.64V54.22a37.68 37.68 0 0 0-37.64-37.63H51.94Zm0 18.82h116.63c0 3.07-.18 6.03-.64 9-3.87 28.03-25.4 50.08-52.28 53.95h-.11c-2.72.46-5.45.64-8.27.64h-.04c-.35 0-.65 0-1.01-.1h-.01c-29.82-.37-54.33-23.05-59.33-52.62a53.32 53.32 0 0 1-.86-9.58c-.02-.08-.01-.16-.02-.24a18.56 18.56 0 0 1 5.94-1.05Zm135.53 0H310.1c-.1 32.17-23.16 58.71-52.93 62.95h-.22c-.38.06-.8.04-1.19.1-2.27.31-4.55.54-6.96.54-.38 0-.68 0-1.06-.1a59.1 59.1 0 0 1-21.21-4.32 9.4 9.4 0 0 0-11.26 3.4l-.08.12a9.06 9.06 0 0 0 3.91 13.53 75.88 75.88 0 0 0 23.61 5.53v.02c-4.9 30.23-30.18 53.27-60.47 53.27-30.67 0-56.24-23.6-60.58-54.4h.02c24.44-4.5 45-20.44 56.32-42.2a83.78 83.78 0 0 0 7.85 12.25c3.83 4.97 11.68 4.52 15.22-.64 2.17-3.14 2.26-7.37-.09-10.39a64.46 64.46 0 0 1-13.51-39.66Zm141.55 0h118.11c1.55 0 3.02.25 4.47.61a59.33 59.33 0 0 1-.6 8.4c-3.88 28.02-25.39 50.07-52.28 53.94h-.22a47.3 47.3 0 0 1-8.17.64h-.02c-.37 0-.64 0-1.02-.1-30.38-.46-55.38-23.96-59.63-54.47a58.92 58.92 0 0 1-.64-9.02Zm136.93 26.53v108.51h-.62c-30.66 0-56.24-23.6-60.58-54.4 28.65-5.28 51.9-26.4 61.2-54.11Zm-432.83 4.2c.9 2.29 1.78 4.6 2.9 6.78 12.45 24.7 36.78 42.12 65.18 44.24-4.9 30.23-30.18 53.28-60.47 53.28-1.6 0-3.1-.1-4.7-.2-1-.06-1.95-.22-2.91-.38V66.14Zm286.43 7.7c12.55 24.24 36.7 41.2 64.7 43.32a64.23 64.23 0 0 1-12.1 28.5c-2.2 2.9-2.54 6.75-.53 9.76l.5.71c3.47 5.2 11.34 5.69 15.1.67a85.16 85.16 0 0 0 7.33-11.6c11.33 21.85 32 37.88 56.63 42.4h.02c-3.4 28.57-25.11 51.32-52.48 55.18h-.22c-.38.08-.8.04-1.2.1a48 48 0 0 1-6.95.56c-.38 0-.68 0-1.06-.1a58.8 58.8 0 0 1-13.19-1.66 9.4 9.4 0 0 0-10.76 4.98 9.12 9.12 0 0 0 5.92 12.82 78.28 78.28 0 0 0 13 2.1v.02c-4.9 30.24-30.19 53.2-60.47 53.2-30.67 0-56.25-23.6-60.59-54.3 24.45-4.51 45.03-20.45 56.35-42.2a81.52 81.52 0 0 0 15.02 20.5c4.5 4.46 12.28 2.87 15.03-2.79a8.85 8.85 0 0 0-1.54-10.18 64.16 64.16 0 0 1-18.41-37.23c8.7-.64 16.99-2.69 24.7-5.96a9.1 9.1 0 0 0 3.91-13.47 9.56 9.56 0 0 0-11.71-3.35 58.2 58.2 0 0 1-22.76 4.63c-30.67 0-56.25-23.6-60.59-54.4 24.45-4.5 45.03-20.46 56.35-42.21Zm-208.07 71.34h.02c11.32 21.85 32 37.88 56.62 42.4-3.4 28.58-25.11 51.34-52.47 55.2l-.02-.01h-.2c-2.63.46-5.36.66-8.2.66-.37 0-.65 0-1.02-.09l-.02.02c-30.47-.48-55.55-24.18-59.6-54.76 28.1-2.05 52.24-19.09 64.89-43.42Zm141.54 0c11.33 21.85 32 37.88 56.63 42.4v.02c-3.4 28.57-25.1 51.34-52.46 55.2h-.01v-.02H257a47.7 47.7 0 0 1-8.2.66c-.39 0-.67 0-1.05-.1v.02c-30.48-.47-55.57-24.16-59.62-54.75v-.01c28.11-2.04 52.26-19.09 64.9-43.42Zm212.93 61.77V314.8H465.34c-30.66 0-56.26-23.6-60.6-54.3h.02c28.5-5.32 51.76-26.1 61.2-53.55Zm-432.83 3.97c11.3 28.05 37.28 48.35 68.08 50.68-4.9 30.23-30.2 53.18-60.47 53.18-1.6 0-3.1-.1-4.7-.2-1-.06-1.95-.24-2.91-.4V210.93ZM178 218.3h.02c12.54 24.24 36.61 41.2 64.73 43.31-4.91 30.23-30.2 53.18-60.47 53.18a58.3 58.3 0 0 1-23.55-4.91 9.5 9.5 0 0 0-11.58 3.1 9.16 9.16 0 0 0 3.86 13.7 80.2 80.2 0 0 0 17.11 5.25c-3.4 28.58-25.11 51.43-52.47 55.3h-.09c-2.73.46-5.47.64-8.3.64-.38 0-.67.01-1.04-.08-30.48-.46-55.58-24.16-59.63-54.85 28.1-2.03 52.24-19.08 64.89-43.31a81.72 81.72 0 0 0 6.69 10.73c3.73 5.07 11.62 4.7 15.23-.44l.02-.02a8.88 8.88 0 0 0 .02-10.37 64.02 64.02 0 0 1-11.76-29.02c24.44-4.51 45-20.45 56.32-42.2Zm75.02 71.33c11.33 21.83 31.99 37.78 56.61 42.3a64.5 64.5 0 0 1-14.1 33.34 8.92 8.92 0 0 0 .07 11.41c3.78 4.53 10.95 4.6 14.67.04a81.76 81.76 0 0 0 9.28-14.1h.02c12.54 24.24 36.6 41.3 64.6 43.43-4.8 30.14-30.1 53.18-60.38 53.18-30.67 0-56.15-23.59-60.59-54.28v-.02c4.5-.86 8.87-2.07 13.06-3.62 5.87-2.18 7.59-9.54 3.62-14.3l-.06-.07a9.46 9.46 0 0 0-10.53-2.78 58.75 58.75 0 0 1-12.12 3.07h-.08c-2.73.46-5.46.64-8.3.64-.37 0-.67.01-1.05-.08a56.2 56.2 0 0 1-13.75-1.9 9.35 9.35 0 0 0-9.62 3.23l-.15.17c-4.06 5.05-1.78 12.77 4.57 14.45a73.99 73.99 0 0 0 13.84 2.3v.01c-4.81 30.14-30.1 53.18-60.4 53.18-30.66 0-56.14-23.59-60.57-54.28v-.02h.02c24.44-4.52 45-20.54 56.32-42.29a83.37 83.37 0 0 0 14.15 19.67 9.61 9.61 0 0 0 14.27-.72l.06-.07a8.96 8.96 0 0 0-.65-11.97 64.42 64.42 0 0 1-17.71-36.6v-.01c28.11-2.03 52.26-19.07 64.9-43.31Zm141.53.01c11.33 21.84 32 37.8 56.63 42.31h.02c-3.4 28.57-25.11 51.43-52.48 55.3h-.22c-2.62.46-5.34.64-8.15.64h-.04c-.36 0-.65 0-1.02-.08h-.03c-30.46-.48-55.55-24.19-59.6-54.87 28.1-2.03 52.25-19.07 64.9-43.3Zm71.4 61.67v98.13c0 3.53-1.04 6.8-2.74 9.61-1.89-.08-3.77-.12-5.62-.46-.1.1-.18 0-.18 0-27.08-3.6-48.71-25.62-52.68-53.64h.02c28.5-5.33 51.76-26.18 61.2-53.64Zm-432.83 3.97c11.27 28.06 37.18 48.4 68 50.75v.02C96.3 436 71.29 458.95 41.19 459.22h-.45c-1.67 0-3.3-.12-4.93-.25a18.6 18.6 0 0 1-2.69-9.54v-94.16Zm78.36 78.78a81.62 81.62 0 0 0 33.93 34.2H77.67a80.26 80.26 0 0 0 33.82-34.2Zm141.54 0a81.62 81.62 0 0 0 33.93 34.2h-67.85a81.58 81.58 0 0 0 33.92-34.2Zm141.53 0a80.33 80.33 0 0 0 33.86 34.2h-67.78a81.58 81.58 0 0 0 33.92-34.2Z" style="fill:#550000"/><circle style="fill:#fff" cx="257.77" cy="245.69" r="140.14"/><path d="M251.5 87.96c-93.75 0-169.75 76.01-169.75 169.76 0 93.75 76 169.76 169.75 169.76s169.76-76 169.76-169.76c0-93.75-76-169.76-169.76-169.76Zm-28.29 84.88c24 0 60.62 9.17 84.38 18.24.12.04.17.13.28.2 45.65 13.9 68.36 57.9 69.46 60.12 2 3.97 2 8.66 0 12.65-1.1 2.2-23.81 46.21-69.46 60.12-.11.04-.18.17-.3.22-23.76 9.06-60.37 18.21-84.36 18.21-7.8 0-14.15-6.32-14.15-14.15 0-7.37 5.7-13.23 12.88-13.9-21.93-10.5-40.74-25.53-55.65-40.58-10.28 11.24-16.05 19.68-16.22 19.92a14.15 14.15 0 0 1-23.51-15.72c.83-1.25 8.05-11.91 20.72-25.53-13-16.17-20.37-28.88-21.22-30.37a13.83 13.83 0 0 1-1.88-6.96 14.15 14.15 0 0 1 26.41-7.05c.2.3 6.32 10.8 17.25 24.6 13.93-11.97 31.17-23.87 51.06-32.58a14 14 0 0 1-9.84-13.3c0-7.81 6.34-14.14 14.15-14.14Zm99.03 70.74a14.15 14.15 0 1 0 0 28.29 14.15 14.15 0 0 0 0-28.3Z"/></svg>