<svg xmlns="http://www.w3.org/2000/svg" width="18" height="20" fill="darkgoldenrod" viewBox="0 0 128 128" style="margin-right:3px"><path d="M44 14c-7.2 0-13 7.2-13 16s5.8 16 13 16 13-7.2 13-16-5.8-16-13-16zm40 0c-7.2 0-13 7.2-13 16s5.8 16 13 16 13-7.2 13-16-5.8-16-13-16zM18 48c-7.2 0-13 7.2-13 16s5.8 16 13 16 13-7.2 13-16-5.8-16-13-16zm92 0c-7.2 0-13 7.2-13 16s5.8 16 13 16 13-7.2 13-16-5.8-16-13-16zM64 58.7c-5.6 0-10.7 2.8-13.8 7.4L38.8 83.2a16.3 16.3 0 00-.8 17c2.9 5.5 8.4 8.8 14.6 8.8h22.8c6.2 0 11.7-3.3 14.6-8.8a16.5 16.5 0 00-.8-17L77.8 66.1A16.6 16.6 0 0064 58.7z"/></svg>