<svg xmlns="http://www.w3.org/2000/svg" xmlns:xlink="http://www.w3.org/1999/xlink" data-name="Layer 1" viewBox="76 76 360 360">
<defs>
<linearGradient id="WSuGw0oLQwhFtIbaQCIhxa" x1="254.623" x2="254.623" y1="13.823" y2="497.02" gradientUnits="userSpaceOnUse">
<stop offset="0" stop-color="#0697bb"></stop>
<stop offset="1" stop-color="#05414e"></stop>
</linearGradient>
<linearGradient id="WSuGw0oLQwhFtIbaQCIhxb" x1="256" x2="256" y1="13.823" y2="497.02" xlink:href="#WSuGw0oLQwhFtIbaQCIhxa">
</linearGradient>
</defs>

<g data-name="Group">
<path fill="url(#WSuGw0oLQwhFtIbaQCIhxa)" d="M320.521,196.542a10,10,0,0,0-7.016-3.06,10.139,10.139,0,0,0-7.125,2.8l-74.826,72.093-28.7-27.629a10,10,0,0,0-14.14.271l-23.578,24.5a10,10,0,0,0,.27,14.139l59.23,57.013a10,10,0,0,0,13.873,0L343.847,235.168a10,10,0,0,0,.263-14.14ZM231.565,315.573l-45.087-43.4,9.708-10.086,28.436,27.372a10,10,0,0,0,13.874,0l74.56-71.836,9.713,10.083Z" data-name="Compound Path"></path>
<path fill="url(#WSuGw0oLQwhFtIbaQCIhxb)" d="M256,92.312c-90.256,0-163.684,73.583-163.684,163.849S165.739,420,256,420h.01c90.256,0,163.684-73.583,163.684-163.849S346.261,92.312,256,92.312ZM256.005,400H256c-79.228,0-143.684-64.612-143.684-143.849s64.456-143.762,143.694-143.762S399.689,176.962,399.689,256.2,335.233,400,256.005,400Z" data-name="Compound Path"></path>
</g>
</svg>