<svg xmlns="http://www.w3.org/2000/svg" viewBox="0 0 48 48"><path fill="#ffc107" d="M45 40L3 17 3 8 45 31z"></path><path fill="#424242" d="M14.749 21.955L13.759 13.892 11.615 12.718 12.799 22.366 14.944 23.541 14.944 23.541 13.396 22.693zM18.047 16.24L15.903 15.066 16.623 20.933 18.498 19.91zM17.088 24.715L19.232 25.889 19.232 25.889 17.088 24.715zM3.038 8.021L4.223 17.67 6.367 18.844 5.182 9.195zM22.336 18.589L22.336 18.589 20.191 17.414 20.372 18.888 21.63 18.202zM21.376 27.063L23.52 28.237 23.52 28.237 21.376 27.063zM7.326 10.369L8.511 20.018 10.655 21.192 9.471 11.543zM34.705 25.362L33.265 26.155 34.241 34.108 36.385 35.282 35.201 25.634zM43.777 30.33L41.633 29.156 42.818 38.805 44.962 39.979zM37.345 26.808L38.529 36.457 40.674 37.631 39.489 27.982zM29.953 31.76L32.097 32.934 31.391 27.185 29.518 28.215zM25.664 29.411L25.664 29.411 27.809 30.586 27.644 29.246 26.505 29.872zM24.48 19.763L24.48 19.763 24.71 19.889z"></path><path fill="#f57c00" d="M14.749 21.955L14.944 23.541 17.088 24.715 16.623 20.933zM22.336 18.589L23.52 28.237 25.664 29.411 24.48 19.763zM34.705 25.362L34.705 25.362 24.71 19.889 26.624 20.937 27.644 29.246 29.518 28.215 28.768 22.111 30.912 23.285 31.391 27.185 33.265 26.155 33.056 24.459zM18.498 19.91L19.232 25.889 21.376 27.063 20.372 18.888z"></path><path fill="#212121" d="M13.396 22.693L14.944 23.541 14.749 21.955zM16.623 20.933L17.088 24.715 19.232 25.889 18.498 19.91zM21.63 18.202L20.372 18.888 21.376 27.063 23.52 28.237 22.336 18.589zM33.056 24.459L33.265 26.155 34.705 25.362zM28.768 22.111L29.518 28.215 31.391 27.185 30.912 23.285zM24.71 19.889L24.48 19.763 25.664 29.411 26.505 29.872 27.644 29.246 26.624 20.937z"></path><path fill="#ffc107" d="M3 40L45 17 45 8 3 31z"></path><g><path fill="#424242" d="M34.241 13.892L36.385 12.718 35.201 22.366 33.056 23.541zM29.953 16.24L32.097 15.066 30.912 24.715 28.768 25.889zM42.818 9.195L44.962 8.021 43.777 17.67 41.633 18.844zM25.664 18.589L27.809 17.414 26.624 27.063 24.48 28.237zM38.529 11.543L40.674 10.369 39.489 20.018 37.345 21.192zM12.799 25.634L14.944 24.459 13.759 34.108 11.615 35.282zM4.223 30.33L6.367 29.156 5.182 38.805 3.038 39.979zM8.511 27.982L10.655 26.808 9.471 36.457 7.326 37.631zM17.088 23.285L19.232 22.111 18.047 31.76 15.903 32.934zM21.376 20.937L23.52 19.763 22.336 29.411 20.191 30.586z"></path></g></svg>